<?xml version="1.0" standalone="no"?>
<!DOCTYPE svg PUBLIC "-//W3C//DTD SVG 20010904//EN"
 "http://www.w3.org/TR/2001/REC-SVG-20010904/DTD/svg10.dtd">
<svg version="1.0" xmlns="http://www.w3.org/2000/svg"
 width="512.000000pt" height="512.000000pt" viewBox="0 0 512.000000 512.000000"
 preserveAspectRatio="xMidYMid meet">

<g transform="translate(0.000000,512.000000) scale(0.100000,-0.100000)"
fill="#000000" stroke="none">
<path d="M2086 4779 c-40 -31 -35 -75 14 -135 22 -27 40 -59 40 -72 0 -15 -19
-45 -50 -79 -64 -70 -82 -104 -82 -159 0 -49 37 -122 74 -149 77 -53 156 40
98 115 -11 14 -20 29 -20 34 0 4 21 31 46 59 90 100 106 178 59 274 -29 58
-105 133 -133 133 -11 0 -31 -9 -46 -21z"/>
<path d="M2516 4779 c-40 -31 -35 -75 14 -135 22 -27 40 -59 40 -72 0 -15 -19
-45 -50 -79 -64 -70 -82 -104 -82 -158 0 -76 65 -165 121 -165 64 0 93 76 51
130 -11 14 -20 29 -20 34 0 4 23 34 52 65 60 65 80 107 80 168 0 91 -101 233
-165 233 -8 0 -26 -9 -41 -21z"/>
<path d="M2966 4779 c-38 -30 -35 -71 13 -133 21 -28 41 -59 44 -68 6 -18 -32
-76 -78 -118 -77 -71 -74 -176 7 -259 46 -47 106 -39 126 17 10 29 0 63 -30
104 -10 14 -4 25 41 73 68 75 85 109 84 170 0 56 -28 119 -76 175 -54 63 -88
73 -131 39z"/>
<path d="M2036 3819 c-20 -15 -26 -29 -26 -58 0 -34 11 -48 178 -214 l178
-177 57 0 57 0 0 -49 0 -48 -92 -7 c-674 -49 -1302 -476 -1613 -1096 -107
-213 -182 -469 -200 -682 -3 -40 -8 -88 -11 -105 l-5 -33 -259 0 -259 0 -20
-26 c-28 -35 -26 -70 3 -97 14 -12 218 -127 455 -256 l430 -233 122 -155 c126
-157 177 -203 271 -241 40 -16 133 -17 1258 -17 1125 0 1218 1 1258 17 94 38
145 84 271 241 l122 155 430 233 c237 129 441 244 455 256 29 27 31 62 3 97
l-20 26 -259 0 -259 0 -5 33 c-3 17 -8 65 -11 105 -18 213 -93 469 -200 682
-311 620 -939 1047 -1612 1096 l-93 7 0 48 0 49 57 0 57 0 178 177 c167 166
178 180 178 214 0 29 -6 43 -26 58 -26 21 -36 21 -524 21 -488 0 -498 0 -524
-21z m814 -136 c0 -4 -35 -43 -77 -85 l-78 -78 -135 0 -135 0 -77 77 c-43 43
-78 81 -78 85 0 5 131 8 290 8 160 0 290 -3 290 -7z m-48 -579 c474 -65 884
-296 1190 -669 226 -275 373 -639 403 -992 l7 -83 -195 0 c-111 0 -208 -4
-223 -10 -31 -12 -53 -37 -54 -62 0 -26 21 -66 39 -75 9 -4 185 -10 391 -13
l375 -5 -298 -162 -297 -163 -1580 0 -1580 0 -297 163 -298 162 1645 5 c905 3
1652 9 1661 13 18 9 39 49 39 75 -1 25 -23 50 -54 62 -18 7 -503 10 -1493 10
l-1465 0 6 78 c11 129 70 402 87 402 5 0 5 7 2 17 -4 11 -3 14 5 9 8 -5 10 -2
6 9 -7 17 14 48 26 40 5 -3 12 -1 15 5 4 6 1 9 -6 8 -6 -2 -14 3 -17 11 -2 8
0 11 6 7 5 -3 10 0 9 7 -1 31 4 48 12 42 6 -3 9 3 9 12 -1 10 11 44 27 76 24
49 30 56 43 45 14 -11 14 -10 5 7 -12 21 7 70 44 110 10 12 19 27 21 35 2 8 8
17 13 18 5 2 9 9 9 16 0 16 38 51 46 43 9 -8 -6 -28 -16 -22 -5 3 -11 2 -14
-3 -2 -4 6 -8 18 -8 12 0 23 5 24 11 8 59 17 82 49 120 20 24 40 42 45 39 5
-3 7 -2 6 3 -5 14 51 75 61 68 5 -3 13 0 17 6 4 8 3 9 -4 5 -7 -4 -12 -3 -12
2 0 12 72 68 83 64 5 -1 6 2 3 6 -8 14 31 45 45 36 8 -4 10 -3 5 4 -4 7 -1 12
8 12 8 0 18 5 22 12 5 7 3 8 -7 3 -12 -8 -12 -6 0 9 8 9 20 15 28 12 8 -3 12
-2 9 3 -3 5 13 21 37 37 23 16 48 35 56 42 7 7 21 10 29 7 9 -3 13 -3 10 1
-13 13 115 89 133 79 5 -4 8 -1 7 7 -2 7 4 13 12 13 8 1 26 8 40 17 41 28 120
59 130 53 6 -3 10 -1 10 6 0 7 8 9 21 6 12 -3 18 -3 15 1 -16 16 158 64 334
92 146 23 363 25 512 4z m-1702 -734 c0 -5 -2 -10 -4 -10 -3 0 -8 5 -11 10 -3
6 -1 10 4 10 6 0 11 -4 11 -10z m2893 -1664 c-4 -8 -41 -54 -81 -101 -53 -62
-87 -93 -120 -108 l-47 -22 -1185 0 -1186 0 -49 26 c-45 23 -162 144 -196 202
-9 16 62 17 1431 17 1245 0 1440 -2 1433 -14z"/>
<path d="M1754 2906 c11 -9 24 -16 30 -16 12 0 7 5 -24 19 -24 11 -24 11 -6
-3z"/>
<path d="M1640 2860 c-9 -6 -10 -10 -3 -10 6 0 15 5 18 10 8 12 4 12 -15 0z"/>
<path d="M1630 2826 c0 -2 7 -7 16 -10 8 -3 12 -2 9 4 -6 10 -25 14 -25 6z"/>
<path d="M1607 2809 c7 -7 15 -10 18 -7 3 3 -2 9 -12 12 -14 6 -15 5 -6 -5z"/>
<path d="M1364 2659 c-5 -8 -3 -9 6 -4 7 4 16 2 22 -6 8 -12 9 -12 6 0 -6 20
-24 25 -34 10z"/>
<path d="M1297 2573 c-3 -5 5 -8 18 -8 13 0 21 3 18 8 -2 4 -10 7 -18 7 -8 0
-16 -3 -18 -7z"/>
<path d="M1154 2449 c-5 -8 -3 -9 6 -4 9 5 10 2 6 -13 -4 -12 -2 -23 5 -28 8
-5 9 -3 4 6 -4 7 -2 15 4 20 9 5 8 10 -3 19 -11 9 -16 9 -22 0z"/>
<path d="M1130 2421 c0 -6 4 -13 10 -16 6 -3 7 1 4 9 -7 18 -14 21 -14 7z"/>
<path d="M1011 2223 c-1 -6 -4 -20 -7 -30 -5 -17 -5 -17 6 0 6 10 9 23 6 30
-3 9 -5 9 -5 0z"/>
<path d="M976 2195 c-3 -9 -6 -22 -5 -28 0 -7 5 -1 10 12 5 13 8 26 5 28 -2 2
-6 -3 -10 -12z"/>
<path d="M861 1864 c0 -11 3 -14 6 -6 3 7 2 16 -1 19 -3 4 -6 -2 -5 -13z"/>
<path d="M761 1554 c0 -11 3 -14 6 -6 3 7 2 16 -1 19 -3 4 -6 -2 -5 -13z"/>
</g>
</svg>
